<svg xmlns="http://www.w3.org/2000/svg" width="1100" height="935" viewBox="0 0 1100 935">
  <rect width="1100" height="935" fill="#171716"/>
  <rect x="8" y="8" width="147" height="919" rx="8" fill="#242423" stroke="#3a3a38"/>
  <rect x="171" y="8" width="414" height="919" rx="2" fill="#1c1c1b" stroke="#343432"/>
  <rect x="586" y="8" width="506" height="919" rx="2" fill="#1c1c1b" stroke="#343432"/>

  <rect x="171" y="8" width="414" height="44" fill="#20201f"/>
  <rect x="586" y="8" width="506" height="44" fill="#20201f"/>
  <rect x="594" y="60" width="490" height="36" rx="8" fill="#252524"/>
  <rect x="195" y="819" width="366" height="92" rx="16" fill="#2a2a29" stroke="#434340"/>

  <g fill="#f0efeb" font-family="ui-sans-serif, -apple-system, BlinkMacSystemFont, 'Segoe UI', sans-serif">
    <text x="22" y="34" font-size="14" font-weight="600">project rail</text>
    <text x="22" y="56" font-size="12" fill="#aaa9a4">147 px</text>

    <text x="187" y="35" font-size="14" font-weight="600">conversation</text>
    <text x="187" y="74" font-size="12" fill="#aaa9a4">44 px tab strip</text>
    <text x="223" y="126" font-size="15">Assistant prose and compact activity rows</text>
    <text x="223" y="151" font-size="12" fill="#aaa9a4">15 px body · ≈24 px line height</text>
    <text x="211" y="850" font-size="13" fill="#d1d0cb">composer</text>
    <text x="211" y="874" font-size="12" fill="#aaa9a4">366 × 92 px in split</text>

    <text x="602" y="35" font-size="14" font-weight="600">invoked context</text>
    <text x="602" y="82" font-size="13">artifact controls</text>
    <text x="618" y="142" font-size="24" font-weight="650">Scientific artifact</text>
    <text x="618" y="172" font-size="13" fill="#aaa9a4">report, table, image, Files, or Compute</text>

    <text x="318" y="910" font-size="12" fill="#aaa9a4">414 px · ≈45%</text>
    <text x="794" y="910" font-size="12" fill="#aaa9a4">506 px · ≈55%</text>
  </g>

  <g stroke="#888780" stroke-width="1" fill="none">
    <path d="M8 922h147"/>
    <path d="M171 922h414"/>
    <path d="M586 922h506"/>
    <path d="M155 464h16"/>
    <path d="M585 464h1"/>
  </g>

  <g fill="#aaa9a4" font-family="ui-monospace, SFMono-Regular, Menlo, monospace" font-size="11">
    <text x="157" y="455" text-anchor="middle" transform="rotate(-90 157 455)">16 px gap</text>
    <text x="580" y="455" text-anchor="end" transform="rotate(-90 580 455)">divider</text>
    <text x="8" y="932">8 px application inset</text>
  </g>
</svg>
